# Blender v2.80 (sub 75) OBJ File: 'floor.blend'
# www.blender.org
mtllib floor.mtl
o Cube_Cube.002
v -0.250000 -0.125000 0.250000
v -0.250000 0.125000 0.250000
v -0.250000 -0.125000 -0.250000
v -0.250000 0.125000 -0.250000
v 0.250000 -0.125000 0.250000
v 0.250000 0.125000 0.250000
v 0.250000 -0.125000 -0.250000
v 0.250000 0.125000 -0.250000
vt 0.998999 0.001001
vt 0.667668 0.001001
vt 0.667668 0.332332
vt 0.998999 0.332332
vt 0.332332 0.001001
vt 0.001001 0.001001
vt 0.001001 0.332332
vt 0.332332 0.332332
vt 0.332332 0.334334
vt 0.001001 0.334334
vt 0.001001 0.665666
vt 0.332332 0.665666
vt 0.665666 0.001001
vt 0.334334 0.001001
vt 0.334334 0.332332
vt 0.665666 0.332332
vt 0.665666 0.334334
vt 0.334334 0.334334
vt 0.334334 0.665666
vt 0.665666 0.665666
vt 0.332332 0.667668
vt 0.001001 0.667668
vt 0.001001 0.998999
vt 0.332332 0.998999
vn -1.0000 0.0000 0.0000
vn 0.0000 0.0000 -1.0000
vn 1.0000 0.0000 0.0000
vn 0.0000 0.0000 1.0000
vn 0.0000 -1.0000 0.0000
vn 0.0000 1.0000 0.0000
usemtl Material.001
s off
f 1/1/1 2/2/1 4/3/1 3/4/1
f 3/5/2 4/6/2 8/7/2 7/8/2
f 7/9/3 8/10/3 6/11/3 5/12/3
f 5/13/4 6/14/4 2/15/4 1/16/4
f 3/17/5 7/18/5 5/19/5 1/20/5
f 8/21/6 4/22/6 2/23/6 6/24/6
